<?xml version="1.0" standalone="no"?>
<!DOCTYPE svg PUBLIC "-//W3C//DTD SVG 20010904//EN"
 "http://www.w3.org/TR/2001/REC-SVG-20010904/DTD/svg10.dtd">
<svg version="1.0" xmlns="http://www.w3.org/2000/svg"
 width="360.000000pt" height="360.000000pt" viewBox="0 0 360.000000 360.000000"
 preserveAspectRatio="xMidYMid meet">

<g transform="translate(0.000000,360.000000) scale(0.100000,-0.100000)"
fill="#000000" stroke="none">
<path d="M2680 3154 c-228 -46 -793 -158 -1255 -249 -462 -91 -862 -173 -889
-182 -63 -20 -128 -80 -155 -143 -21 -49 -21 -53 -21 -972 0 -508 4 -937 9
-953 27 -97 100 -193 182 -242 110 -65 61 -63 1254 -63 691 0 1096 4 1124 11
120 27 228 114 284 228 l32 66 3 882 2 883 -751 0 c-414 0 -750 3 -747 6 3 3
336 71 739 150 404 80 735 147 737 149 4 3 -82 454 -94 498 -3 9 -13 17 -22
16 -9 -1 -204 -39 -432 -85z m244 -219 c74 -49 136 -92 136 -95 0 -3 -78 -21
-174 -40 l-175 -34 -140 94 c-78 51 -140 95 -137 97 5 5 339 72 347 70 4 -1
68 -42 143 -92z m-704 -149 c74 -49 130 -91 125 -93 -6 -1 -85 -18 -177 -36
l-167 -34 -143 95 c-79 53 -138 97 -133 99 39 13 342 69 350 65 6 -3 71 -46
145 -96z m-587 -233 c-4 -2 -84 -18 -177 -37 l-169 -34 -138 92 c-76 50 -139
94 -139 97 0 3 78 22 173 41 l172 34 143 -95 c79 -53 140 -97 135 -98z m-88
-393 l-120 -120 -185 0 -185 0 120 120 120 120 185 0 185 0 -120 -120z m720 0
l-120 -120 -181 0 -181 0 121 120 121 120 180 0 180 0 -120 -120z m730 0
l-120 -120 -185 0 -185 0 120 120 120 120 185 0 185 0 -120 -120z m-27 -929
l-3 -519 -25 -27 c-53 -57 -2 -55 -1137 -55 -1008 0 -1050 1 -1090 19 -75 35
-73 16 -73 591 l0 510 1165 0 1166 0 -3 -519z"/>
<path d="M1640 1209 l0 -381 23 14 c12 8 146 90 297 183 151 92 281 173 288
180 11 10 -47 49 -291 198 -167 103 -307 187 -311 187 -3 0 -6 -172 -6 -381z"/>
</g>
</svg>
